<svg width="94" height="94" viewBox="0 0 94 94" fill="none" xmlns="http://www.w3.org/2000/svg">
<g filter="url(#filter0_d_120_2487)">
<rect x="19.5" y="17" width="55" height="55" rx="14.1935" fill="url(#paint0_radial_120_2487)"/>
<rect x="25.5156" y="23.0156" width="42.9688" height="42.9688" rx="14.1935" fill="url(#paint1_radial_120_2487)"/>
<path fill-rule="evenodd" clip-rule="evenodd" d="M48.1332 56.0956C55.0304 54.9865 59.7219 48.4998 58.6121 41.6072C57.5022 34.7147 51.0112 30.0263 44.1141 31.1354C37.2169 32.2445 32.5253 38.7311 33.6352 45.6237C34.5 50.9947 38.6325 55.0274 43.6785 56.0212C42.86 50.0921 45.5431 46.1955 46.7898 44.7073C44.0678 46.3949 42.5292 50.1505 42.4285 51.8264C37.9187 47.1229 41.3395 42.7374 45.6778 41.8626C47.7281 41.2917 47.3219 39.1381 47.1384 38.1659C47.1078 38.0034 47.0833 37.8738 47.0777 37.7902C49.3749 39.2107 51.0975 42.5305 51.1565 45.2379C51.2195 48.1335 49.8978 50.7382 46.6706 51.8158C45.5468 52.191 44.6682 53.1945 44.7584 54.3752L44.8978 56.1997C45.9528 56.3016 47.0379 56.2717 48.1332 56.0956Z" fill="#9A74EB"/>
</g>
<defs>
<filter id="filter0_d_120_2487" x="0.25" y="0.5" width="93.5" height="93.5" filterUnits="userSpaceOnUse" color-interpolation-filters="sRGB">
<feFlood flood-opacity="0" result="BackgroundImageFix"/>
<feColorMatrix in="SourceAlpha" type="matrix" values="0 0 0 0 0 0 0 0 0 0 0 0 0 0 0 0 0 0 127 0" result="hardAlpha"/>
<feMorphology radius="2.75" operator="dilate" in="SourceAlpha" result="effect1_dropShadow_120_2487"/>
<feOffset dy="2.75"/>
<feGaussianBlur stdDeviation="8.25"/>
<feComposite in2="hardAlpha" operator="out"/>
<feColorMatrix type="matrix" values="0 0 0 0 0.568627 0 0 0 0 0.427451 0 0 0 0 0.87451 0 0 0 0.6 0"/>
<feBlend mode="normal" in2="BackgroundImageFix" result="effect1_dropShadow_120_2487"/>
<feBlend mode="normal" in="SourceGraphic" in2="effect1_dropShadow_120_2487" result="shape"/>
</filter>
<radialGradient id="paint0_radial_120_2487" cx="0" cy="0" r="1" gradientUnits="userSpaceOnUse" gradientTransform="translate(22.1442 -2.56731) rotate(71.4584) scale(89.8058)">
<stop stop-color="#854CFF"/>
<stop offset="1" stop-color="#090909"/>
</radialGradient>
<radialGradient id="paint1_radial_120_2487" cx="0" cy="0" r="1" gradientUnits="userSpaceOnUse" gradientTransform="translate(27.5814 7.72866) rotate(71.4584) scale(70.1608)">
<stop stop-color="#7435FA"/>
<stop offset="1" stop-color="#050505"/>
</radialGradient>
</defs>
</svg>
